HIERARCHY
ROOT Hips
{
	OFFSET 0.000000 0.000000 0.000000
	CHANNELS 6 Xposition Yposition Zposition Xrotation Yrotation Zrotation
	JOINT Spine
	{
		OFFSET 0.000000 0.042231 0.063346
		CHANNELS 3 Xrotation Yrotation Zrotation
		JOINT Spine1
		{
			OFFSET 0.000000 0.014667 0.083179
			CHANNELS 3 Xrotation Yrotation Zrotation
			JOINT Spine2
			{
				OFFSET 0.000000 0.007361 0.084141
				CHANNELS 3 Xrotation Yrotation Zrotation
				JOINT Spine3
				{
					OFFSET 0.000000 0.000000 0.084462
					CHANNELS 3 Xrotation Yrotation Zrotation
					JOINT Neck
					{
						OFFSET 0.000000 -0.031673 0.221713
						CHANNELS 3 Xrotation Yrotation Zrotation
						JOINT Head
						{
							OFFSET 0.000000 -0.020167 0.114371
							CHANNELS 3 Xrotation Yrotation Zrotation
							End Site
							{
								OFFSET 0.000000 0.000000 0.000000
							}
						}
					}
					JOINT RightShoulder
					{
						OFFSET -0.029161 -0.048602 0.157471
						CHANNELS 3 Xrotation Yrotation Zrotation
						JOINT RightArm
						{
							OFFSET -0.144834 0.000000 0.000000
							CHANNELS 3 Xrotation Yrotation Zrotation
							JOINT RightForeArm
							{
								OFFSET -0.274949 0.000000 0.000000
								CHANNELS 3 Xrotation Yrotation Zrotation
								JOINT RightHand
								{
									OFFSET -0.254725 0.000000 0.000000
									CHANNELS 3 Xrotation Yrotation Zrotation
									JOINT RightHandEnd
									{
										OFFSET -0.068160 0.000000 0.000000
										CHANNELS 3 Xrotation Yrotation Zrotation
										End Site
										{
											OFFSET 0.000000 0.000000 0.000000
										}
									}
									JOINT RightHandThumb1
									{
										OFFSET -0.027264 -0.045440 -0.018176
										CHANNELS 3 Xrotation Yrotation Zrotation
										End Site
										{
											OFFSET 0.000000 0.000000 0.000000
										}
									}
								}
							}
						}
					}
					JOINT LeftShoulder
					{
						OFFSET 0.029161 -0.048602 0.157471
						CHANNELS 3 Xrotation Yrotation Zrotation
						JOINT LeftArm
						{
							OFFSET 0.144834 0.000000 0.000000
							CHANNELS 3 Xrotation Yrotation Zrotation
							JOINT LeftForeArm
							{
								OFFSET 0.274949 0.000000 0.000000
								CHANNELS 3 Xrotation Yrotation Zrotation
								JOINT LeftHand
								{
									OFFSET 0.254725 0.000000 0.000000
									CHANNELS 3 Xrotation Yrotation Zrotation
									JOINT LeftHandEnd
									{
										OFFSET 0.068160 0.000000 0.000000
										CHANNELS 3 Xrotation Yrotation Zrotation
										End Site
										{
											OFFSET 0.000000 0.000000 0.000000
										}
									}
									JOINT LeftHandThumb1
									{
										OFFSET 0.027264 -0.045440 -0.018176
										CHANNELS 3 Xrotation Yrotation Zrotation
										End Site
										{
											OFFSET 0.000000 0.000000 0.000000
										}
									}
								}
							}
						}
					}
				}
			}
		}
	}
	JOINT RightUpLeg
	{
		OFFSET -0.086512 0.000000 -0.025273
		CHANNELS 3 Xrotation Yrotation Zrotation
		JOINT RightLeg
		{
			OFFSET 0.000000 0.000000 -0.433119
			CHANNELS 3 Xrotation Yrotation Zrotation
			JOINT RightFoot
			{
				OFFSET 0.000000 0.000000 -0.404688
				CHANNELS 3 Xrotation Yrotation Zrotation
				JOINT RightToeBase
				{
					OFFSET 0.000000 -0.126496 -0.046041
					CHANNELS 3 Xrotation Yrotation Zrotation
					End Site
					{
						OFFSET 0.000000 0.000000 0.000000
					}
				}
			}
		}
	}
	JOINT LeftUpLeg
	{
		OFFSET 0.086512 0.000000 -0.025273
		CHANNELS 3 Xrotation Yrotation Zrotation
		JOINT LeftLeg
		{
			OFFSET 0.000000 0.000000 -0.433119
			CHANNELS 3 Xrotation Yrotation Zrotation
			JOINT LeftFoot
			{
				OFFSET 0.000000 0.000000 -0.404688
				CHANNELS 3 Xrotation Yrotation Zrotation
				JOINT LeftToeBase
				{
					OFFSET 0.000000 -0.126496 -0.046041
					CHANNELS 3 Xrotation Yrotation Zrotation
					End Site
					{
						OFFSET 0.000000 0.000000 0.000000
					}
				}
			}
		}
	}
}
MOTION
Frames: 14
Frame Time: 0.033333
0.197960 -0.276461 0.401538 105.523700 -6.164800 5.098900 0.044600 2.021900 -0.441700 1.713900 0.069100 -0.115300 -2.081300 -1.290900 -0.668800 -1.092800 -1.276000 1.254000 -24.634800 15.543200 6.583100 -7.799700 -0.634700 1.491300 -3.093400 35.162300 -8.705500 4.260000 -43.724600 21.187700 -0.000100 0.000100 115.563400 62.642400 69.365400 -45.647700 0.000000 0.000000 0.000000 0.000000 0.000000 0.000000 3.136200 -8.522000 10.096100 3.471100 24.586800 -35.833600 -0.000100 -0.000100 -102.999300 92.500000 -80.349000 79.590100 0.000000 0.000000 0.000000 0.000000 0.000000 0.000000 -1.637200 8.598700 -10.965800 15.161400 0.000000 0.000000 4.248200 -10.952100 -13.281700 -0.516200 0.000000 0.000000 1.527100 -7.445700 8.395900 9.747700 0.000000 0.000000 7.360000 15.959700 12.321500 -3.896100 0.000000 0.000000 
0.197963 -0.276784 0.408625 104.894000 -6.230100 4.690100 0.062700 2.132700 -0.408800 1.699300 0.028500 -0.113100 -2.050200 -1.281000 -0.475900 -1.094900 -1.230800 1.227200 -24.793400 15.179900 6.603200 -7.395400 -0.351900 1.640500 -3.807400 34.224200 -7.339400 3.829800 -43.634100 22.128600 -0.000100 0.000100 112.946400 61.848500 69.811100 -44.760800 0.000000 0.000000 0.000000 0.000000 0.000000 0.000000 2.794900 -8.131900 9.421300 3.404700 24.678900 -36.915000 -0.000100 -0.000100 -100.515400 88.399100 -80.380500 75.498100 0.000000 0.000000 0.000000 0.000000 0.000000 0.000000 -1.544400 8.701800 -10.788100 15.172400 0.000000 0.000000 4.304100 -10.896600 -13.326100 -0.802900 0.000000 0.000000 1.738400 -7.449100 8.779800 10.045800 0.000000 0.000000 7.426600 16.156800 12.674200 -3.928000 0.000000 0.000000 
0.197998 -0.276951 0.417205 104.357500 -6.260100 4.258400 0.000400 2.157700 -0.396700 1.633300 0.039200 -0.093900 -2.078800 -1.176600 -0.332000 -1.093300 -1.164700 1.182100 -25.087600 14.691700 6.605700 -6.580500 -0.182100 1.793700 -4.610300 32.983100 -5.880400 3.457900 -43.396800 23.401300 -0.000100 0.000100 109.781000 61.025300 70.336500 -43.827900 0.000000 0.000000 0.000000 0.000000 0.000000 0.000000 2.484100 -7.802300 8.715400 3.308300 24.817300 -38.128600 -0.000100 -0.000100 -97.639000 83.685600 -80.792300 70.808800 0.000000 0.000000 0.000000 0.000000 0.000000 0.000000 -1.536800 8.812300 -10.602200 15.303800 0.000000 0.000000 4.301400 -10.657800 -13.484900 -1.079200 0.000000 0.000000 1.888100 -7.525500 9.446800 10.234800 0.000000 0.000000 7.333700 16.494900 13.203400 -3.704100 0.000000 0.000000 
0.198031 -0.277007 0.426984 103.869500 -6.216100 3.836200 -0.094300 2.074200 -0.388900 1.523800 0.092200 -0.077300 -2.186200 -1.034600 -0.214800 -1.076000 -1.101500 1.135100 -25.625200 14.194800 6.663400 -5.466200 -0.009800 1.967700 -5.815300 31.596900 -4.286500 3.651200 -42.893300 25.133100 -0.000100 0.000100 106.070000 60.176000 71.120100 -42.862700 0.000000 0.000000 0.000000 0.000000 0.000000 0.000000 2.080600 -7.457300 7.897600 3.294600 25.057300 -39.423200 -0.000100 -0.000100 -94.382500 77.041100 -81.629000 64.114000 0.000000 0.000000 0.000000 0.000000 0.000000 0.000000 -1.529900 8.878600 -10.330600 15.547400 0.000000 0.000000 4.168900 -10.450300 -13.795300 -1.037200 0.000000 0.000000 2.071100 -7.682200 10.209600 10.285100 0.000000 0.000000 7.117400 16.518000 13.891700 -3.710000 0.000000 0.000000 
0.198077 -0.277086 0.437726 103.287200 -6.046700 3.547300 -0.182600 1.981100 -0.365500 1.430200 0.123500 -0.069800 -2.275700 -1.012200 -0.142600 -1.065200 -1.050900 1.123000 -26.241700 13.680300 6.648800 -4.192600 0.366000 2.177100 -6.836600 30.020700 -2.699100 3.682000 -41.950200 26.706600 0.000000 0.000100 101.985800 59.462200 72.083400 -42.176900 0.000000 0.000000 0.000000 0.000000 0.000000 0.000000 1.558200 -6.874700 6.711400 3.245300 25.323100 -40.694200 -0.000100 -0.000100 -90.754600 68.208800 -82.420500 55.104200 0.000000 0.000000 0.000000 0.000000 0.000000 0.000000 -1.308600 8.834700 -10.097600 15.782000 0.000000 0.000000 3.884900 -10.439800 -14.207800 -0.672100 0.000000 0.000000 2.385200 -7.930200 10.816800 10.315300 0.000000 0.000000 6.913800 16.001400 14.453400 -4.044300 0.000000 0.000000 
0.198135 -0.277310 0.449550 102.539100 -5.813200 3.491300 -0.210400 1.976400 -0.339200 1.391900 0.096900 -0.074600 -2.291800 -1.084700 -0.158700 -1.079100 -0.944600 1.077600 -26.803800 12.956600 6.428900 -2.707600 0.912300 2.364600 -7.097800 28.079700 -1.255600 2.806600 -40.613400 27.819500 0.000000 0.000100 97.591500 58.838800 73.171100 -41.762500 0.000000 0.000000 0.000000 0.000000 0.000000 0.000000 1.093500 -6.136300 5.162500 2.947200 25.428400 -41.895200 -0.000100 -0.000100 -86.768900 59.947900 -82.856600 46.671800 0.000000 0.000000 0.000000 0.000000 0.000000 0.000000 -0.777000 8.724600 -10.097700 15.899400 0.000000 0.000000 3.583400 -10.442900 -14.524200 -0.347700 0.000000 0.000000 2.814700 -8.182700 11.078200 10.419700 0.000000 0.000000 6.834100 15.448200 14.752400 -4.282000 0.000000 0.000000 
0.198206 -0.277795 0.463179 101.832900 -5.665800 3.507600 -0.217800 2.080400 -0.314100 1.373800 0.030800 -0.092900 -2.285300 -1.065500 -0.258500 -1.092800 -0.732800 0.912500 -27.476000 11.943100 6.123700 -0.894800 1.429300 2.467000 -7.198400 25.733000 0.372400 1.525400 -39.104800 28.797700 0.000000 0.000100 92.806900 57.982900 74.439900 -41.099200 0.000000 0.000000 0.000000 0.000000 0.000000 0.000000 0.788400 -5.566100 3.570900 2.386900 25.333200 -43.008000 0.000000 -0.000100 -82.481900 53.727400 -83.160300 40.432300 0.000000 0.000000 0.000000 0.000000 0.000000 0.000000 -0.296800 8.691700 -10.175000 15.935400 0.000000 0.000000 3.439500 -10.264900 -14.630200 -0.298100 0.000000 0.000000 3.110400 -8.276300 11.026700 10.553000 0.000000 0.000000 6.843200 15.646100 15.003900 -4.011200 0.000000 0.000000 
0.198333 -0.278564 0.479120 101.308900 -5.647100 3.354400 -0.209100 2.201100 -0.282400 1.374200 0.021400 -0.100900 -2.363300 -0.877300 -0.418700 -1.085100 -0.532300 0.727200 -28.328900 10.826800 5.902700 1.121000 1.854600 2.572000 -7.803700 23.190800 2.404000 0.638400 -37.476000 29.984800 0.000000 0.000100 87.542200 56.690700 75.959800 -39.919100 0.000000 0.000000 0.000000 0.000000 0.000000 0.000000 0.507900 -5.265400 2.074700 1.774500 25.234600 -44.053600 0.000000 -0.000100 -77.882900 46.399300 -83.557900 33.223400 0.000000 0.000000 0.000000 0.000000 0.000000 0.000000 -0.164300 8.799400 -10.093900 15.935900 0.000000 0.000000 3.455900 -10.056400 -14.651200 -0.413700 0.000000 0.000000 3.156400 -8.182900 10.898900 10.557800 0.000000 0.000000 6.909900 16.782200 15.283700 -3.335600 0.000000 0.000000 
0.198542 -0.279438 0.497121 100.865500 -5.660200 3.066100 -0.114800 2.335600 -0.276000 1.396700 0.045600 -0.104600 -2.583100 -0.692000 -0.478800 -1.098000 -0.380100 0.585100 -29.012800 9.726200 5.643900 3.133900 2.326000 2.893500 -8.437900 20.634400 4.528700 0.036300 -35.476000 31.441500 0.000000 0.000100 81.660700 54.847500 77.786100 -38.399700 0.000000 0.000000 0.000000 0.000000 0.000000 0.000000 0.134400 -5.043000 0.367600 1.244800 25.267200 -45.045200 0.000000 -0.000100 -72.814100 34.858600 -83.866800 21.875100 0.000000 0.000000 0.000000 0.000000 0.000000 0.000000 -0.249300 8.998400 -10.045700 15.895100 0.000000 0.000000 3.482600 -10.001800 -14.669500 -0.545000 0.000000 0.000000 3.057600 -8.049400 10.929500 10.340300 0.000000 0.000000 7.100000 18.180500 15.387100 -2.801300 0.000000 0.000000 
0.198783 -0.280208 0.516725 100.477300 -5.633300 2.832600 -0.048800 2.487000 -0.283200 1.425100 0.107200 -0.101400 -2.926100 -0.615600 -0.483100 -1.167800 -0.293400 0.535800 -29.160400 8.723100 5.180200 5.066400 2.829100 3.416200 -8.457100 18.210100 6.462100 -0.639300 -33.059500 33.255200 0.000000 0.000100 74.882500 51.583800 79.947500 -35.900200 0.000000 0.000000 0.000000 0.000000 0.000000 0.000000 -0.178000 -4.619500 -1.868500 0.670200 25.116200 -46.019800 0.000000 -0.000100 -67.001500 20.474800 -83.870800 7.896900 0.000000 0.000000 0.000000 0.000000 0.000000 0.000000 -0.453000 9.258700 -10.261800 15.922000 0.000000 0.000000 3.411900 -9.957800 -14.547500 -0.676600 0.000000 0.000000 2.777500 -7.992200 11.219200 10.058100 0.000000 0.000000 7.344700 19.008600 15.330000 -2.791200 0.000000 0.000000 
0.199052 -0.280822 0.537281 100.032700 -5.596600 2.650200 -0.022500 2.631300 -0.289000 1.412600 0.169400 -0.097600 -3.302900 -0.535300 -0.514500 -1.258700 -0.205600 0.483300 -28.761500 7.707000 4.549500 6.736200 3.340300 3.966000 -8.147400 15.836900 8.482300 -1.133900 -30.328300 35.565100 0.000000 0.000100 66.917000 44.185900 82.378700 -29.718900 0.000000 0.000000 0.000000 0.000000 0.000000 0.000000 -0.424900 -4.118400 -4.455100 0.207900 24.446700 -47.122300 0.000000 0.000000 -60.226000 5.845700 -83.611800 -5.878300 0.000000 0.000000 0.000000 0.000000 0.000000 0.000000 -0.599800 9.583400 -10.559400 16.082100 0.000000 0.000000 3.307100 -9.740400 -14.180400 -0.809700 0.000000 0.000000 2.463500 -7.990600 11.601800 9.933100 0.000000 0.000000 7.350800 19.106100 15.518500 -3.071600 0.000000 0.000000 
0.199321 -0.281394 0.558378 99.501900 -5.532100 2.347100 -0.054400 2.702800 -0.282000 1.354900 0.195200 -0.091900 -3.614400 -0.363100 -0.553300 -1.289000 -0.109300 0.386700 -28.175200 6.639500 4.016200 7.956000 3.859600 4.354000 -8.108000 13.480300 10.953800 -1.006500 -27.310400 38.275000 0.000000 0.000100 57.722300 25.353700 84.666600 -12.621800 0.000000 0.000000 0.000000 0.000000 0.000000 0.000000 -1.045000 -3.709400 -7.034900 0.478700 23.084200 -48.647300 0.000000 0.000000 -52.345500 -8.941100 -83.068300 -19.082000 0.000000 0.000000 0.000000 0.000000 0.000000 0.000000 -0.678000 9.876900 -10.568200 16.313800 0.000000 0.000000 3.271500 -9.463700 -13.839100 -0.928500 0.000000 0.000000 2.211500 -8.046900 11.793800 10.114900 0.000000 0.000000 7.017500 18.851700 16.093100 -3.180400 0.000000 0.000000 
0.199560 -0.281981 0.579585 98.873500 -5.384600 1.874700 -0.093600 2.683600 -0.258400 1.294900 0.163100 -0.082700 -3.836200 -0.170500 -0.421500 -1.244500 -0.013400 0.267600 -27.665100 5.590900 3.735300 8.729300 4.353500 4.470000 -8.288100 11.276100 13.792300 -0.312400 -23.925000 41.146500 0.000000 0.000000 47.423900 -14.799800 85.393900 25.005600 0.000000 0.000000 0.000000 0.000000 0.000000 0.000000 -2.207400 -3.386300 -9.665100 1.776000 20.841100 -50.770700 0.000000 0.000000 -43.268300 -23.460600 -82.059800 -30.830000 0.000000 0.000000 0.000000 0.000000 0.000000 0.000000 -0.671700 10.042700 -10.391800 16.483000 0.000000 0.000000 3.316300 -9.292100 -13.783400 -1.061000 0.000000 0.000000 2.120300 -8.177200 11.767300 10.436500 0.000000 0.000000 6.696000 18.640700 16.641900 -3.047600 0.000000 0.000000 
0.199748 -0.282532 0.600418 98.244700 -5.204700 1.377400 -0.068100 2.658500 -0.233800 1.303100 0.105900 -0.067700 -4.078800 -0.041400 -0.055100 -1.171300 0.050100 0.187100 -27.356900 4.757000 3.681400 9.246000 4.662700 4.278300 -8.403000 9.521800 16.758000 0.626700 -20.420200 43.944400 0.000000 0.000000 36.301800 -47.089200 83.254800 53.964300 0.000000 0.000000 0.000000 0.000000 0.000000 0.000000 -3.202200 -3.162100 -12.778300 3.404200 17.492100 -53.079900 0.000000 0.000000 -33.352900 -35.534700 -80.491600 -38.464900 0.000000 0.000000 0.000000 0.000000 0.000000 0.000000 -0.631100 10.157100 -10.424700 16.562100 0.000000 0.000000 3.364500 -9.177500 -13.841900 -1.195300 0.000000 0.000000 2.175000 -8.288200 11.836100 10.513400 0.000000 0.000000 6.708000 18.704600 16.847900 -2.935100 0.000000 0.000000 
